<mxfile host="app.diagrams.net" modified="2023-01-14T06:32:47.876Z" agent="5.0 (Windows NT 10.0; Win64; x64) AppleWebKit/537.36 (KHTML, like Gecko) Chrome/107.0.0.0 Safari/537.36 OPR/93.0.0.0" etag="kAwrNe1r15vrbP-KmC4O" version="20.5.1" type="github">
  <diagram id="6-VBrLHjaqa2bFwfQni-" name="Страница 1">
    <mxGraphModel dx="2645" dy="1305" grid="0" gridSize="10" guides="1" tooltips="1" connect="1" arrows="1" fold="1" page="0" pageScale="1" pageWidth="827" pageHeight="1169" math="0" shadow="0">
      <root>
        <mxCell id="0" />
        <mxCell id="1" parent="0" />
        <mxCell id="KCeYdRw9fzAuJjBpCJq2-2" value="Bot" style="swimlane;fontStyle=0;align=center;verticalAlign=top;childLayout=stackLayout;horizontal=1;startSize=26;horizontalStack=0;resizeParent=1;resizeLast=0;collapsible=1;marginBottom=0;rounded=0;shadow=0;strokeWidth=1;" vertex="1" parent="1">
          <mxGeometry x="61" y="-297" width="160" height="138" as="geometry">
            <mxRectangle x="130" y="380" width="160" height="26" as="alternateBounds" />
          </mxGeometry>
        </mxCell>
        <mxCell id="KCeYdRw9fzAuJjBpCJq2-3" value="HelloAplication" style="swimlane;fontStyle=0;align=center;verticalAlign=top;childLayout=stackLayout;horizontal=1;startSize=26;horizontalStack=0;resizeParent=1;resizeLast=0;collapsible=1;marginBottom=0;rounded=0;shadow=0;strokeWidth=1;" vertex="1" parent="1">
          <mxGeometry x="-219" y="-3" width="160" height="138" as="geometry">
            <mxRectangle x="130" y="380" width="160" height="26" as="alternateBounds" />
          </mxGeometry>
        </mxCell>
        <mxCell id="KCeYdRw9fzAuJjBpCJq2-4" value="Сontroller" style="swimlane;fontStyle=0;align=center;verticalAlign=top;childLayout=stackLayout;horizontal=1;startSize=26;horizontalStack=0;resizeParent=1;resizeLast=0;collapsible=1;marginBottom=0;rounded=0;shadow=0;strokeWidth=1;" vertex="1" parent="1">
          <mxGeometry x="-219" y="-297" width="160" height="138" as="geometry">
            <mxRectangle x="130" y="380" width="160" height="26" as="alternateBounds" />
          </mxGeometry>
        </mxCell>
        <mxCell id="KCeYdRw9fzAuJjBpCJq2-5" value="&lt;div&gt;Агрегация – это когда экземпляр двигателя создается где-то в другом месте кода, и передается в конструктор автомобиля в качестве параметра.&lt;/div&gt;&lt;div&gt;Одна машина может соответствовать нескольким пассажирам. Кроме того, если всех пассажиров высадить из машины, она продолжит спокойно функционировать.&lt;/div&gt;" style="text;strokeColor=none;fillColor=none;html=1;align=center;verticalAlign=middle;whiteSpace=wrap;rounded=0;fontSize=16;" vertex="1" parent="1">
          <mxGeometry x="-514.5" y="268" width="1037" height="30" as="geometry" />
        </mxCell>
        <mxCell id="KCeYdRw9fzAuJjBpCJq2-6" value="Наследование — это когда класс-наследник имеет все поля и методы родительского класса, и, как правило, добавляет какой-то новый функционал или/и поля. &lt;br&gt;Наследование описывает связь «является» (или по-английски «IS A»). Лев является Животным." style="text;html=1;resizable=0;autosize=1;align=center;verticalAlign=middle;points=[];fillColor=none;strokeColor=none;rounded=0;fontSize=16;" vertex="1" parent="1">
          <mxGeometry x="-602.5" y="358" width="1213" height="50" as="geometry" />
        </mxCell>
        <mxCell id="KCeYdRw9fzAuJjBpCJq2-7" value="&lt;div&gt;Композиция — более строгий тип связи. При использовании композиции объект не только является частью какого-то объекта, но и не может принадлежать другому объекту того же типа.&amp;nbsp;&lt;/div&gt;&lt;div&gt;Самый простой пример — двигатель автомобиля. Двигатель является частью автомобиля, но не может быть частью другого автомобиля.&lt;br&gt;&lt;/div&gt;&lt;div&gt;&lt;br&gt;&lt;/div&gt;" style="text;html=1;resizable=0;autosize=1;align=center;verticalAlign=middle;points=[];fillColor=none;strokeColor=none;rounded=0;fontSize=16;" vertex="1" parent="1">
          <mxGeometry x="-703.5" y="437" width="1415" height="70" as="geometry" />
        </mxCell>
        <mxCell id="KCeYdRw9fzAuJjBpCJq2-9" value="Агрегация" style="text;html=1;resizable=0;autosize=1;align=center;verticalAlign=middle;points=[];fillColor=none;strokeColor=none;rounded=0;fontSize=16;" vertex="1" parent="1">
          <mxGeometry x="-45" y="-275" width="93" height="31" as="geometry" />
        </mxCell>
        <mxCell id="KCeYdRw9fzAuJjBpCJq2-10" style="edgeStyle=orthogonalEdgeStyle;rounded=0;orthogonalLoop=1;jettySize=auto;html=1;endArrow=diamondThin;endFill=0;strokeWidth=1;targetPerimeterSpacing=0;shadow=0;endSize=18;exitX=1;exitY=0.5;exitDx=0;exitDy=0;" edge="1" parent="1" source="KCeYdRw9fzAuJjBpCJq2-4" target="KCeYdRw9fzAuJjBpCJq2-2">
          <mxGeometry relative="1" as="geometry">
            <mxPoint x="36" y="-262" as="sourcePoint" />
            <mxPoint x="166" y="-228" as="targetPoint" />
            <Array as="points">
              <mxPoint x="67" y="-228" />
              <mxPoint x="67" y="-228" />
            </Array>
          </mxGeometry>
        </mxCell>
        <mxCell id="KCeYdRw9fzAuJjBpCJq2-11" value="Application" style="swimlane;fontStyle=0;align=center;verticalAlign=top;childLayout=stackLayout;horizontal=1;startSize=26;horizontalStack=0;resizeParent=1;resizeLast=0;collapsible=1;marginBottom=0;rounded=0;shadow=0;strokeWidth=1;" vertex="1" parent="1">
          <mxGeometry x="61" y="-4" width="160" height="140" as="geometry">
            <mxRectangle x="550" y="140" width="160" height="26" as="alternateBounds" />
          </mxGeometry>
        </mxCell>
        <mxCell id="KCeYdRw9fzAuJjBpCJq2-12" style="edgeStyle=orthogonalEdgeStyle;rounded=0;orthogonalLoop=1;jettySize=auto;html=1;shadow=0;fontSize=13;endArrow=block;endFill=0;endSize=17;targetPerimeterSpacing=0;strokeWidth=1;exitX=0;exitY=0.5;exitDx=0;exitDy=0;entryX=1;entryY=0.5;entryDx=0;entryDy=0;" edge="1" parent="1" source="KCeYdRw9fzAuJjBpCJq2-11" target="KCeYdRw9fzAuJjBpCJq2-3">
          <mxGeometry relative="1" as="geometry">
            <mxPoint x="1.2999999999999545" y="70" as="sourcePoint" />
            <mxPoint x="-48" y="69" as="targetPoint" />
          </mxGeometry>
        </mxCell>
        <mxCell id="KCeYdRw9fzAuJjBpCJq2-13" value="Наследование" style="text;html=1;resizable=0;autosize=1;align=center;verticalAlign=middle;points=[];fillColor=none;strokeColor=none;rounded=0;fontSize=16;" vertex="1" parent="1">
          <mxGeometry x="-58.99999999999991" y="29.999999999999957" width="126" height="31" as="geometry" />
        </mxCell>
      </root>
    </mxGraphModel>
  </diagram>
</mxfile>
